# Blender 4.0.2
# www.blender.org
mtllib meiro.mtl
o Plane
v -10.000000 0.000000 10.000000
v 10.000000 0.000000 10.000000
v -10.000000 0.000000 -10.000000
v 10.000000 0.000000 -10.000000
v -10.000000 1.000000 10.000000
v -10.000000 1.000000 -10.000000
v 10.000000 1.000000 10.000000
v 10.000000 1.000000 -10.000000
v -8.000000 0.000000 10.000000
v -6.000000 0.000000 10.000000
v -4.000000 0.000000 10.000000
v -2.000000 0.000000 10.000000
v 0.000000 0.000000 10.000000
v 2.000000 0.000000 10.000000
v 4.000000 0.000000 10.000000
v 6.000000 0.000000 10.000000
v 8.000000 0.000000 10.000000
v 8.000000 0.000000 -10.000000
v 6.000000 0.000000 -10.000000
v 4.000000 0.000000 -10.000000
v 2.000000 0.000000 -10.000000
v 0.000000 0.000000 -10.000000
v -2.000000 0.000000 -10.000000
v -4.000000 0.000000 -10.000000
v -6.000000 0.000000 -10.000000
v -8.000000 0.000000 -10.000000
v -8.000000 1.000000 -10.000000
v -6.000000 1.000000 -10.000000
v -4.000000 1.000000 -10.000000
v -2.000000 1.000000 -10.000000
v 0.000000 1.000000 -10.000000
v 2.000000 1.000000 -10.000000
v 4.000000 1.000000 -10.000000
v 6.000000 1.000000 -10.000000
v 8.000000 1.000000 -10.000000
v -8.000000 1.000000 10.000000
v -6.000000 1.000000 10.000000
v -4.000000 1.000000 10.000000
v -2.000000 1.000000 10.000000
v 0.000000 1.000000 10.000000
v 2.000000 1.000000 10.000000
v 4.000000 1.000000 10.000000
v 6.000000 1.000000 10.000000
v 8.000000 1.000000 10.000000
v -10.000000 0.000000 -8.000000
v -10.000000 0.000000 -6.000000
v -10.000000 0.000000 -4.000000
v -10.000000 0.000000 -2.000000
v -10.000000 0.000000 0.000000
v -10.000000 0.000000 2.000000
v -10.000000 0.000000 4.000000
v -10.000000 0.000000 6.000000
v -10.000000 0.000000 8.000000
v 10.000000 0.000000 8.000000
v 10.000000 0.000000 6.000000
v 10.000000 0.000000 4.000000
v 10.000000 0.000000 2.000000
v 10.000000 0.000000 0.000000
v 10.000000 0.000000 -2.000000
v 10.000000 0.000000 -4.000000
v 10.000000 0.000000 -6.000000
v 10.000000 0.000000 -8.000000
v -10.000000 1.000000 -8.000000
v -10.000000 1.000000 -6.000000
v -10.000000 1.000000 -4.000000
v -10.000000 1.000000 -2.000000
v -10.000000 1.000000 0.000000
v -10.000000 1.000000 2.000000
v -10.000000 1.000000 4.000000
v -10.000000 1.000000 6.000000
v -10.000000 1.000000 8.000000
v 10.000000 1.000000 8.000000
v 10.000000 1.000000 6.000000
v 10.000000 1.000000 4.000000
v 10.000000 1.000000 2.000000
v 10.000000 1.000000 0.000000
v 10.000000 1.000000 -2.000000
v 10.000000 1.000000 -4.000000
v 10.000000 1.000000 -6.000000
v 10.000000 1.000000 -8.000000
v -8.000000 0.000000 8.000000
v -8.000000 0.000000 6.000000
v -8.000000 0.000000 4.000000
v -8.000000 0.000000 2.000000
v -8.000000 0.000000 0.000000
v -8.000000 0.000000 -2.000000
v -8.000000 0.000000 -4.000000
v -8.000000 0.000000 -6.000000
v -8.000000 0.000000 -8.000000
v -6.000000 0.000000 8.000000
v -6.000000 0.000000 6.000000
v -6.000000 0.000000 4.000000
v -6.000000 0.000000 2.000000
v -6.000000 0.000000 0.000000
v -6.000000 0.000000 -2.000000
v -6.000000 0.000000 -4.000000
v -6.000000 0.000000 -6.000000
v -6.000000 0.000000 -8.000000
v -4.000000 0.000000 8.000000
v -4.000000 0.000000 6.000000
v -4.000000 0.000000 4.000000
v -4.000000 0.000000 2.000000
v -4.000000 0.000000 0.000000
v -4.000000 0.000000 -2.000000
v -4.000000 0.000000 -4.000000
v -4.000000 0.000000 -6.000000
v -4.000000 0.000000 -8.000000
v -2.000000 0.000000 8.000000
v -2.000000 0.000000 6.000000
v -2.000000 0.000000 4.000000
v -2.000000 0.000000 2.000000
v -2.000000 0.000000 0.000000
v -2.000000 0.000000 -2.000000
v -2.000000 0.000000 -4.000000
v -2.000000 0.000000 -6.000000
v -2.000000 0.000000 -8.000000
v 0.000000 0.000000 8.000000
v 0.000000 0.000000 6.000000
v 0.000000 0.000000 4.000000
v 0.000000 0.000000 2.000000
v 0.000000 0.000000 0.000000
v 0.000000 0.000000 -2.000000
v 0.000000 0.000000 -4.000000
v 0.000000 0.000000 -6.000000
v 0.000000 0.000000 -8.000000
v 2.000000 0.000000 8.000000
v 2.000000 0.000000 6.000000
v 2.000000 0.000000 4.000000
v 2.000000 0.000000 2.000000
v 2.000000 0.000000 0.000000
v 2.000000 0.000000 -2.000000
v 2.000000 0.000000 -4.000000
v 2.000000 0.000000 -6.000000
v 2.000000 0.000000 -8.000000
v 4.000000 0.000000 8.000000
v 4.000000 0.000000 6.000000
v 4.000000 0.000000 4.000000
v 4.000000 0.000000 2.000000
v 4.000000 0.000000 0.000000
v 4.000000 0.000000 -2.000000
v 4.000000 0.000000 -4.000000
v 4.000000 0.000000 -6.000000
v 4.000000 0.000000 -8.000000
v 6.000000 0.000000 8.000000
v 6.000000 0.000000 6.000000
v 6.000000 0.000000 4.000000
v 6.000000 0.000000 2.000000
v 6.000000 0.000000 0.000000
v 6.000000 0.000000 -2.000000
v 6.000000 0.000000 -4.000000
v 6.000000 0.000000 -6.000000
v 6.000000 0.000000 -8.000000
v 8.000000 0.000000 8.000000
v 8.000000 0.000000 6.000000
v 8.000000 0.000000 4.000000
v 8.000000 0.000000 2.000000
v 8.000000 0.000000 0.000000
v 8.000000 0.000000 -2.000000
v 8.000000 0.000000 -4.000000
v 8.000000 0.000000 -6.000000
v 8.000000 0.000000 -8.000000
v -8.000000 1.000000 -8.000000
v -6.000000 1.000000 -8.000000
v -8.000000 1.000000 -6.000000
v -8.000000 1.000000 -8.000000
v -6.000000 1.000000 -6.000000
v -6.000000 1.000000 -8.000000
v -4.000000 1.000000 -8.000000
v -2.000000 1.000000 -8.000000
v -2.000000 1.000000 -8.000000
v 0.000000 1.000000 -8.000000
v 0.000000 1.000000 -6.000000
v 0.000000 1.000000 -8.000000
v 0.000000 1.000000 -4.000000
v 0.000000 1.000000 -6.000000
v 0.000000 1.000000 -4.000000
v 2.000000 1.000000 -4.000000
v 2.000000 1.000000 -4.000000
v 4.000000 1.000000 -4.000000
v 2.000000 1.000000 -6.000000
v 4.000000 1.000000 -6.000000
v 2.000000 1.000000 -6.000000
v 2.000000 1.000000 -8.000000
v 4.000000 1.000000 -2.000000
v 4.000000 1.000000 -4.000000
v 4.000000 1.000000 0.000000
v 4.000000 1.000000 -2.000000
v 2.000000 1.000000 0.000000
v 4.000000 1.000000 0.000000
v 0.000000 1.000000 0.000000
v 2.000000 1.000000 0.000000
v 0.000000 1.000000 2.000000
v 0.000000 1.000000 0.000000
v 0.000000 1.000000 4.000000
v 0.000000 1.000000 2.000000
v 0.000000 1.000000 4.000000
v -2.000000 1.000000 4.000000
v 0.000000 1.000000 6.000000
v 2.000000 1.000000 6.000000
v 2.000000 1.000000 6.000000
v 4.000000 1.000000 6.000000
v 4.000000 1.000000 8.000000
v 4.000000 1.000000 6.000000
v 4.000000 1.000000 8.000000
v 6.000000 1.000000 8.000000
v 6.000000 1.000000 8.000000
v 8.000000 1.000000 8.000000
v 8.000000 1.000000 10.000000
v 8.000000 1.000000 8.000000
v 6.000000 1.000000 6.000000
v 8.000000 1.000000 6.000000
v 10.000000 1.000000 6.000000
v 8.000000 1.000000 6.000000
v 6.000000 1.000000 6.000000
v 6.000000 1.000000 4.000000
v 4.000000 1.000000 4.000000
v 6.000000 1.000000 4.000000
v 2.000000 1.000000 4.000000
v 4.000000 1.000000 4.000000
v 2.000000 1.000000 4.000000
v 2.000000 1.000000 2.000000
v 2.000000 1.000000 2.000000
v 4.000000 1.000000 2.000000
v 4.000000 1.000000 2.000000
v 6.000000 1.000000 2.000000
v -4.000000 1.000000 4.000000
v -2.000000 1.000000 4.000000
v -4.000000 1.000000 6.000000
v -4.000000 1.000000 4.000000
v -2.000000 1.000000 6.000000
v 0.000000 1.000000 6.000000
v 2.000000 1.000000 -2.000000
v 0.000000 1.000000 -2.000000
v 6.000000 1.000000 0.000000
v 6.000000 1.000000 -2.000000
v 6.000000 1.000000 -4.000000
v 6.000000 1.000000 -6.000000
v 4.000000 1.000000 -6.000000
v 6.000000 1.000000 -6.000000
v 0.000000 1.000000 10.000000
v -10.000000 1.000000 -2.000000
v -8.000000 1.000000 4.000000
v -8.000000 1.000000 2.000000
v -8.000000 1.000000 0.000000
v -8.000000 1.000000 -2.000000
v -8.000000 1.000000 -4.000000
v -8.000000 1.000000 -6.000000
v -6.000000 1.000000 4.000000
v -6.000000 1.000000 2.000000
v -6.000000 1.000000 -2.000000
v -6.000000 1.000000 -4.000000
v -6.000000 1.000000 -6.000000
v -10.000000 1.000000 8.000000
v -4.000000 1.000000 2.000000
v -4.000000 1.000000 0.000000
v -4.000000 1.000000 -2.000000
v -4.000000 1.000000 -4.000000
v -4.000000 1.000000 -6.000000
v -4.000000 1.000000 -8.000000
v -10.000000 1.000000 6.000000
v -2.000000 1.000000 0.000000
v -2.000000 1.000000 -2.000000
v -2.000000 1.000000 -4.000000
v -2.000000 1.000000 -6.000000
v 0.000000 1.000000 8.000000
v 0.000000 1.000000 6.000000
v -8.000000 1.000000 8.000000
v -8.000000 1.000000 6.000000
v -6.000000 1.000000 8.000000
v -6.000000 1.000000 6.000000
v -6.000000 1.000000 4.000000
v -4.000000 1.000000 8.000000
v -4.000000 1.000000 6.000000
v -2.000000 1.000000 2.000000
v -2.000000 1.000000 0.000000
v 10.000000 1.000000 -8.000000
v 4.000000 1.000000 -8.000000
v 6.000000 1.000000 -8.000000
v 8.000000 1.000000 -8.000000
v 8.000000 1.000000 4.000000
v 8.000000 1.000000 2.000000
v 8.000000 1.000000 0.000000
v 8.000000 1.000000 -2.000000
v 8.000000 1.000000 -4.000000
v 8.000000 1.000000 -6.000000
v 8.000000 1.000000 -8.000000
v 4.000000 1.000000 -2.000000
v -4.000000 3.000000 4.000000
v -4.000000 3.000000 2.000000
v -4.000000 3.000000 0.000000
v -2.000000 3.000000 4.000000
v -2.000000 3.000000 2.000000
v -2.000000 3.000000 0.000000
v 0.000000 3.000000 4.000000
v 0.000000 3.000000 2.000000
v 0.000000 3.000000 0.000000
v 2.000000 3.000000 -4.000000
v 2.000000 3.000000 -6.000000
v 2.000000 3.000000 -8.000000
v 4.000000 3.000000 -4.000000
v 4.000000 3.000000 -6.000000
v 4.000000 3.000000 -8.000000
v 6.000000 3.000000 -4.000000
v 6.000000 3.000000 -6.000000
v 6.000000 3.000000 -8.000000
v 8.000000 -2.000000 10.000000
v 10.000000 -2.000000 10.000000
v 10.000000 -2.000000 8.000000
v 8.000000 -2.000000 8.000000
vn -0.0000 1.0000 -0.0000
vn 1.0000 -0.0000 -0.0000
vn -1.0000 -0.0000 -0.0000
vn -0.0000 -0.0000 1.0000
vn -0.0000 -0.0000 -1.0000
vt 0.900000 0.900000
vt 1.000000 0.900000
vt 1.000000 1.000000
vt 0.900000 1.000000
vt 0.000000 0.900000
vt 0.000000 1.000000
vt 1.000000 0.100000
vt 1.000000 0.000000
vt 0.100000 1.000000
vt 0.100000 0.000000
vt 0.000000 0.000000
vt 0.900000 0.000000
vt 0.800000 0.000000
vt 0.700000 0.000000
vt 0.600000 0.000000
vt 0.500000 0.000000
vt 0.400000 0.000000
vt 0.300000 0.000000
vt 0.200000 0.000000
vt 0.800000 1.000000
vt 0.700000 1.000000
vt 0.700000 1.000000
vt 0.600000 1.000000
vt 0.500000 1.000000
vt 0.400000 1.000000
vt 0.400000 1.000000
vt 0.300000 1.000000
vt 0.200000 1.000000
vt 0.100000 0.900000
vt 0.200000 0.900000
vt 0.300000 0.900000
vt 0.400000 0.900000
vt 0.500000 0.900000
vt 0.600000 0.900000
vt 0.700000 0.900000
vt 0.800000 0.900000
vt 0.900000 0.100000
vt 0.800000 0.100000
vt 0.900000 0.200000
vt 0.800000 0.200000
vt 0.900000 0.300000
vt 0.800000 0.300000
vt 0.900000 0.400000
vt 0.800000 0.400000
vt 0.900000 0.500000
vt 0.800000 0.500000
vt 0.900000 0.600000
vt 0.800000 0.600000
vt 0.900000 0.700000
vt 0.800000 0.700000
vt 0.900000 0.800000
vt 0.800000 0.800000
vt 0.700000 0.100000
vt 0.700000 0.200000
vt 0.700000 0.300000
vt 0.700000 0.400000
vt 0.700000 0.500000
vt 0.700000 0.600000
vt 0.700000 0.700000
vt 0.700000 0.800000
vt 0.600000 0.100000
vt 0.600000 0.200000
vt 0.600000 0.300000
vt 0.600000 0.400000
vt 0.600000 0.500000
vt 0.600000 0.600000
vt 0.600000 0.700000
vt 0.600000 0.800000
vt 0.500000 0.100000
vt 0.500000 0.200000
vt 0.500000 0.300000
vt 0.500000 0.400000
vt 0.500000 0.500000
vt 0.500000 0.600000
vt 0.500000 0.700000
vt 0.500000 0.800000
vt 0.400000 0.100000
vt 0.400000 0.200000
vt 0.400000 0.300000
vt 0.400000 0.400000
vt 0.400000 0.500000
vt 0.400000 0.600000
vt 0.400000 0.700000
vt 0.400000 0.800000
vt 0.300000 0.100000
vt 0.300000 0.200000
vt 0.300000 0.300000
vt 0.300000 0.400000
vt 0.300000 0.500000
vt 0.300000 0.600000
vt 0.300000 0.700000
vt 0.300000 0.800000
vt 0.200000 0.100000
vt 0.200000 0.200000
vt 0.200000 0.300000
vt 0.200000 0.400000
vt 0.200000 0.500000
vt 0.200000 0.600000
vt 0.200000 0.700000
vt 0.200000 0.800000
vt 0.100000 0.100000
vt 0.100000 0.200000
vt 0.100000 0.300000
vt 0.100000 0.400000
vt 0.100000 0.500000
vt 0.100000 0.600000
vt 0.100000 0.700000
vt 0.100000 0.800000
vt 0.000000 0.100000
vt 0.000000 0.200000
vt 0.000000 0.300000
vt 0.000000 0.400000
vt 0.000000 0.500000
vt 0.000000 0.600000
vt 0.000000 0.700000
vt 0.000000 0.800000
vt 1.000000 0.800000
vt 1.000000 0.700000
vt 1.000000 0.600000
vt 1.000000 0.500000
vt 1.000000 0.400000
vt 1.000000 0.300000
vt 1.000000 0.200000
s 0
usemtl Material.001
f 161/1/1 62/2/1 4/3/1 18/4/1
f 45/5/1 89/29/1 26/9/1 3/6/1
f 89/29/1 98/30/1 25/28/1 26/9/1
f 98/30/1 107/31/1 24/27/1 25/28/1
f 107/31/1 116/32/1 23/26/1 24/27/1
f 116/32/1 125/33/1 22/24/1 23/26/1
f 125/33/1 134/34/1 21/23/1 22/24/1
f 134/34/1 143/35/1 20/22/1 21/23/1
f 143/35/1 152/36/1 19/20/1 20/22/1
f 152/36/1 161/1/1 18/4/1 19/20/1
f 16/13/1 17/12/1 153/37/1 144/38/1
f 144/38/1 153/37/1 154/39/1 145/40/1
f 145/40/1 154/39/1 155/41/1 146/42/1
f 146/42/1 155/41/1 156/43/1 147/44/1
f 147/44/1 156/43/1 157/45/1 148/46/1
f 148/46/1 157/45/1 158/47/1 149/48/1
f 149/48/1 158/47/1 159/49/1 150/50/1
f 150/50/1 159/49/1 160/51/1 151/52/1
f 151/52/1 160/51/1 161/1/1 152/36/1
f 15/14/1 16/13/1 144/38/1 135/53/1
f 135/53/1 144/38/1 145/40/1 136/54/1
f 136/54/1 145/40/1 146/42/1 137/55/1
f 137/55/1 146/42/1 147/44/1 138/56/1
f 138/56/1 147/44/1 148/46/1 139/57/1
f 139/57/1 148/46/1 149/48/1 140/58/1
f 140/58/1 149/48/1 150/50/1 141/59/1
f 141/59/1 150/50/1 151/52/1 142/60/1
f 142/60/1 151/52/1 152/36/1 143/35/1
f 14/15/1 15/14/1 135/53/1 126/61/1
f 126/61/1 135/53/1 136/54/1 127/62/1
f 127/62/1 136/54/1 137/55/1 128/63/1
f 128/63/1 137/55/1 138/56/1 129/64/1
f 129/64/1 138/56/1 139/57/1 130/65/1
f 130/65/1 139/57/1 140/58/1 131/66/1
f 131/66/1 140/58/1 141/59/1 132/67/1
f 132/67/1 141/59/1 142/60/1 133/68/1
f 133/68/1 142/60/1 143/35/1 134/34/1
f 13/16/1 14/15/1 126/61/1 117/69/1
f 117/69/1 126/61/1 127/62/1 118/70/1
f 118/70/1 127/62/1 128/63/1 119/71/1
f 119/71/1 128/63/1 129/64/1 120/72/1
f 120/72/1 129/64/1 130/65/1 121/73/1
f 121/73/1 130/65/1 131/66/1 122/74/1
f 122/74/1 131/66/1 132/67/1 123/75/1
f 123/75/1 132/67/1 133/68/1 124/76/1
f 124/76/1 133/68/1 134/34/1 125/33/1
f 12/17/1 13/16/1 117/69/1 108/77/1
f 108/77/1 117/69/1 118/70/1 109/78/1
f 109/78/1 118/70/1 119/71/1 110/79/1
f 110/79/1 119/71/1 120/72/1 111/80/1
f 111/80/1 120/72/1 121/73/1 112/81/1
f 112/81/1 121/73/1 122/74/1 113/82/1
f 113/82/1 122/74/1 123/75/1 114/83/1
f 114/83/1 123/75/1 124/76/1 115/84/1
f 115/84/1 124/76/1 125/33/1 116/32/1
f 11/18/1 12/17/1 108/77/1 99/85/1
f 99/85/1 108/77/1 109/78/1 100/86/1
f 100/86/1 109/78/1 110/79/1 101/87/1
f 101/87/1 110/79/1 111/80/1 102/88/1
f 102/88/1 111/80/1 112/81/1 103/89/1
f 103/89/1 112/81/1 113/82/1 104/90/1
f 104/90/1 113/82/1 114/83/1 105/91/1
f 105/91/1 114/83/1 115/84/1 106/92/1
f 106/92/1 115/84/1 116/32/1 107/31/1
f 10/19/1 11/18/1 99/85/1 90/93/1
f 90/93/1 99/85/1 100/86/1 91/94/1
f 91/94/1 100/86/1 101/87/1 92/95/1
f 92/95/1 101/87/1 102/88/1 93/96/1
f 93/96/1 102/88/1 103/89/1 94/97/1
f 94/97/1 103/89/1 104/90/1 95/98/1
f 95/98/1 104/90/1 105/91/1 96/99/1
f 96/99/1 105/91/1 106/92/1 97/100/1
f 97/100/1 106/92/1 107/31/1 98/30/1
f 9/10/1 10/19/1 90/93/1 81/101/1
f 81/101/1 90/93/1 91/94/1 82/102/1
f 82/102/1 91/94/1 92/95/1 83/103/1
f 83/103/1 92/95/1 93/96/1 84/104/1
f 84/104/1 93/96/1 94/97/1 85/105/1
f 85/105/1 94/97/1 95/98/1 86/106/1
f 86/106/1 95/98/1 96/99/1 87/107/1
f 87/107/1 96/99/1 97/100/1 88/108/1
f 88/108/1 97/100/1 98/30/1 89/29/1
f 1/11/1 9/10/1 81/101/1 53/109/1
f 53/109/1 81/101/1 82/102/1 52/110/1
f 52/110/1 82/102/1 83/103/1 51/111/1
f 51/111/1 83/103/1 84/104/1 50/112/1
f 50/112/1 84/104/1 85/105/1 49/113/1
f 49/113/1 85/105/1 86/106/1 48/114/1
f 48/114/1 86/106/1 87/107/1 47/115/1
f 47/115/1 87/107/1 88/108/1 46/116/1
f 46/116/1 88/108/1 89/29/1 45/5/1
f 153/37/1 54/7/1 55/123/1 154/39/1
f 154/39/1 55/123/1 56/122/1 155/41/1
f 155/41/1 56/122/1 57/121/1 156/43/1
f 156/43/1 57/121/1 58/120/1 157/45/1
f 157/45/1 58/120/1 59/119/1 158/47/1
f 158/47/1 59/119/1 60/118/1 159/49/1
f 159/49/1 60/118/1 61/117/1 160/51/1
f 160/51/1 61/117/1 62/2/1 161/1/1
usemtl Material.002
f 291/79/1 294/71/1 295/72/1 292/80/1
f 292/80/1 295/72/1 296/73/1 293/81/1
f 288/87/1 291/79/1 292/80/1 289/88/1
f 289/88/1 292/80/1 293/81/1 290/89/1
f 300/59/1 303/50/1 304/52/1 301/60/1
f 301/60/1 304/52/1 305/36/1 302/35/1
f 297/67/1 300/59/1 301/60/1 298/68/1
f 298/68/1 301/60/1 302/35/1 299/34/1
usemtl Material.003
f 2/8/3 54/7/3 308/7/3 307/8/3
f 306/12/1 307/8/1 308/7/1 309/37/1
f 153/37/2 17/12/2 306/12/2 309/37/2
f 54/7/4 153/37/4 309/37/4 308/7/4
f 17/12/5 2/8/5 307/8/5 306/12/5
usemtl Material.004
f 45/5/2 3/6/2 6/6/2 63/5/2
f 54/7/3 2/8/3 7/8/3 72/7/3
f 26/9/4 27/9/4 6/6/4 3/6/4
f 9/10/5 1/11/5 5/11/5 36/10/5
f 2/8/5 17/12/5 44/12/5 7/8/5
f 17/12/5 16/13/5 43/13/5 44/12/5
f 16/13/5 15/14/5 42/14/5 43/13/5
f 15/14/5 14/15/5 41/15/5 42/14/5
f 14/15/5 13/16/5 40/16/5 41/15/5
f 13/16/5 12/17/5 39/17/5 40/16/5
f 12/17/5 11/18/5 38/18/5 39/17/5
f 11/18/5 10/19/5 37/19/5 38/18/5
f 10/19/5 9/10/5 36/10/5 37/19/5
f 4/3/4 8/3/4 35/4/4 18/4/4
f 18/4/4 35/4/4 34/20/4 19/20/4
f 19/20/4 34/20/4 33/21/4 20/22/4
f 20/22/4 33/21/4 32/23/4 21/23/4
f 21/23/4 32/23/4 31/24/4 22/24/4
f 22/24/4 31/24/4 30/25/4 23/26/4
f 23/26/4 30/25/4 29/27/4 24/27/4
f 24/27/4 29/27/4 28/28/4 25/28/4
f 25/28/4 28/28/4 27/9/4 26/9/4
f 4/3/3 62/2/3 80/2/3 8/3/3
f 62/2/3 61/117/3 79/117/3 80/2/3
f 61/117/3 60/118/3 78/118/3 79/117/3
f 60/118/3 59/119/3 77/119/3 78/118/3
f 59/119/3 58/120/3 76/120/3 77/119/3
f 58/120/3 57/121/3 75/121/3 76/120/3
f 57/121/3 56/122/3 74/122/3 75/121/3
f 56/122/3 55/123/3 73/123/3 74/122/3
f 55/123/3 54/7/3 72/7/3 73/123/3
f 1/11/2 53/109/2 71/109/2 5/11/2
f 53/109/2 52/110/2 70/110/2 71/109/2
f 52/110/2 51/111/2 69/111/2 70/110/2
f 51/111/2 50/112/2 68/112/2 69/111/2
f 50/112/2 49/113/2 67/113/2 68/112/2
f 49/113/2 48/114/2 66/114/2 67/113/2
f 48/114/2 47/115/2 65/115/2 66/114/2
f 47/115/2 46/116/2 64/116/2 65/115/2
f 46/116/2 45/5/2 63/5/2 64/116/2
f 89/29/4 98/30/4 163/30/4 162/29/4
f 89/29/3 88/108/3 164/108/3 165/29/3
f 98/30/3 97/100/3 166/100/3 167/30/3
f 107/31/4 116/32/4 169/32/4 168/31/4
f 116/32/4 125/33/4 171/33/4 170/32/4
f 125/33/3 124/76/3 172/76/3 173/33/3
f 124/76/3 123/75/3 174/75/3 175/76/3
f 132/67/5 123/75/5 176/75/5 177/67/5
f 141/59/5 132/67/5 178/67/5 179/59/5
f 142/60/5 133/68/5 180/68/5 181/60/5
f 134/34/3 133/68/3 182/68/3 183/34/3
f 141/59/3 140/58/3 184/58/3 185/59/3
f 140/58/3 139/57/3 186/57/3 187/58/3
f 139/57/5 130/65/5 188/65/5 189/57/5
f 130/65/5 121/73/5 190/73/5 191/65/5
f 121/73/3 120/72/3 192/72/3 193/73/3
f 120/72/3 119/71/3 194/71/3 195/72/3
f 119/71/5 110/79/5 197/79/5 196/71/5
f 127/62/5 118/70/5 198/70/5 199/62/5
f 136/54/5 127/62/5 200/62/5 201/54/5
f 136/54/3 135/53/3 202/53/3 203/54/3
f 144/38/5 135/53/5 204/53/5 205/38/5
f 153/37/5 144/38/5 206/38/5 207/37/5
f 17/12/2 153/37/2 209/37/2 208/12/2
f 154/39/5 145/40/5 210/40/5 211/39/5
f 55/123/5 154/39/5 213/39/5 212/123/5
f 146/42/3 145/40/3 214/40/3 215/42/3
f 146/42/5 137/55/5 216/55/5 217/42/5
f 137/55/5 128/63/5 218/63/5 219/55/5
f 129/64/3 128/63/3 220/63/3 221/64/3
f 138/56/5 129/64/5 222/64/5 223/56/5
f 147/44/5 138/56/5 224/56/5 225/44/5
f 110/79/5 101/87/5 226/87/5 227/79/5
f 101/87/3 100/86/3 228/86/3 229/87/3
f 118/70/5 109/78/5 230/78/5 231/70/5
f 131/66/5 122/74/5 233/74/5 232/66/5
f 151/52/3 150/50/3 236/50/3 237/52/3
f 150/50/3 149/48/3 235/48/3 236/50/3
f 149/48/3 148/46/3 234/46/3 235/48/3
f 151/52/5 142/60/5 238/60/5 239/52/5
f 102/88/5 93/96/5 249/96/5 254/88/5
f 86/106/3 85/105/3 244/105/3 245/106/3
f 113/82/5 104/90/5 256/90/5 262/82/5
f 117/69/3 13/16/3 240/16/3 265/69/3
f 104/90/5 95/98/5 250/98/5 256/90/5
f 88/108/3 87/107/3 246/107/3 247/108/3
f 115/84/5 106/92/5 258/92/5 264/84/5
f 103/89/3 102/88/3 254/88/3 255/89/3
f 118/70/3 117/69/3 265/69/3 266/70/3
f 105/91/5 96/99/5 251/99/5 257/91/5
f 100/86/3 99/85/3 272/85/3 273/86/3
f 97/100/3 96/99/3 251/99/3 252/100/3
f 96/99/5 87/107/5 246/107/5 251/99/5
f 113/82/3 112/81/3 261/81/3 262/82/3
f 86/106/5 48/114/5 241/114/5 245/106/5
f 84/104/3 83/103/3 242/103/3 243/104/3
f 114/83/3 113/82/3 262/82/3 263/83/3
f 107/31/3 106/92/3 258/92/3 259/31/3
f 85/105/3 84/104/3 243/104/3 244/105/3
f 115/84/3 114/83/3 263/83/3 264/84/3
f 93/96/3 92/95/3 248/95/3 249/96/3
f 99/85/5 90/93/5 269/93/5 272/85/5
f 91/94/3 90/93/3 269/93/3 270/94/3
f 81/101/5 53/109/5 253/109/5 267/101/5
f 112/81/3 111/80/3 274/80/3 275/81/3
f 92/95/3 91/94/3 270/94/3 271/95/3
f 82/102/3 81/101/3 267/101/3 268/102/3
f 82/102/5 52/110/5 260/110/5 268/102/5
f 90/93/5 81/101/5 267/101/5 269/93/5
f 161/1/4 62/2/4 276/2/4 279/1/4
f 143/35/4 152/36/4 278/36/4 277/35/4
f 152/36/4 161/1/4 279/1/4 278/36/4
f 159/49/2 160/51/2 285/51/2 284/49/2
f 157/45/2 158/47/2 283/47/2 282/45/2
f 155/41/2 156/43/2 281/43/2 280/41/2
f 160/51/2 161/1/2 286/1/2 285/51/2
f 158/47/2 159/49/2 284/49/2 283/47/2
f 156/43/2 157/45/2 282/45/2 281/43/2
f 140/58/5 131/66/5 232/66/5 287/58/5
